<svg id="flamula" xmlns="http://www.w3.org/2000/svg" xmlns:xlink="http://www.w3.org/1999/xlink" width="500" height="500" viewBox="0 0 500 500">
    
    <path stroke-width="6" stroke="#695041" fill="none" d="M90 96l158-78 162 78"/>
    <path d="M254 24c0 2-2 4-4 4s-4-2-4-4V13c0-2 2-4 4-4s4 2 4 4v11z" fill="#91A4A4"/>
    <path d="M258 8c0 4-4 8-8 8s-8-4-8-8 4-8 8-8 8 4 8 8z" fill="#5E6E66"/>
    <path d="M421 96c0 6-4 10-9 10H88c-5 0-9-4-9-10 0-5 4-9 9-9h324c5 0 9 4 9 9z" fill="#695041"/>
    

    <defs>
        
        <clipPath id="formato">
            <polygon points="396,377 250,482 104,377 104,112 396,112"/>
        </clipPath>
        

    </defs>

    
    <g id="borda3" fill="#00cc5c"><polygon points="410,383 250,499 90,383 90,112 410,112"/></g>
    

    
    <g id="fundo" fill="#ffffff">
        <rect x="131" y="83" width="41" height="27"/>
        <rect x="230" y="83" width="41" height="27"/>
        <rect x="328" y="83" width="41" height="27"/>
        <polygon points="396,377 250,482 104,377 104,112 396,112"/>
    </g>
    

    
    <g id="estampa1" fill="#00cc5c" x="0" clip-path="url(#formato)"><defs><pattern id="Pattern" x="0" y="0" width="200" height="200" patternUnits="userSpaceOnUse"><rect x="100" y="0" width="100" height="100"/><rect x="0" y="100" width="100" height="100"/></pattern></defs><rect fill="url(#Pattern)" x="0" y="0" width="500" height="500" clip-path="url(#corte-formato)" /></g>
    

    
    <g >
      <g id="adorno" transform="scale(2.5) translate(68, 70)">
    <path id="svg_33" d="m37.79399,59.072l3.621,2.161c-0.479,0.165 -0.973,0.318 -1.463,0.458c-0.287,-0.197 -0.622,-0.306 -0.995,-0.306c-0.465,0 -0.89799,0.19099 -1.217,0.479c-0.319,-0.28699 -0.743,-0.479 -1.215,-0.479s-0.898,0.19099 -1.224,0.479c-0.318,-0.28699 -0.743,-0.479 -1.218,-0.479c-0.472,0 -0.89799,0.19099 -1.217,0.479c-0.325,-0.28699 -0.746,-0.479 -1.22501,-0.479c-0.465,0 -0.893,0.19099 -1.214,0.479c-0.325,-0.28699 -0.749,-0.479 -1.218,-0.479c-0.475,0 -0.902,0.19099 -1.221,0.479c-0.31799,-0.28699 -0.74599,-0.479 -1.21799,-0.479s-0.901,0.19099 -1.218,0.479c-0.324,-0.28699 -0.752,-0.479 -1.224,-0.479c-0.414,0 -0.803,0.146 -1.103,0.396c-0.121,-0.032 -0.242,-0.063 -0.36301,-0.096c-0.214,-0.153 -0.472,-0.255 -0.742,-0.28699l3.35,-2.473l12.324,0.147z" fill="#859894"/>
    <path id="svg_34" d="m62.662,34.46c0,0.198 -0.007,0.396 -0.007,0.593c0,0.013 0,0.013 0,0.02c-0.504,4.373 -1.906,8.465 -4.016,12.105l-0.988,-3.035l3.34,-11.748l1.502,-0.777c0.111,0.936 0.169,1.88 0.169,2.842z" fill="#859894"/>
    <polygon id="svg_35" points="54.89699935913086,21.59600067138672 60.99100112915039,32.39399719238281 57.650997161865234,44.141998291015625 46.78300094604492,49.35700225830078 39.53200149536133,39.96099853515625 45.067996978759766,24.572998046875 " fill="#B2C0BB"/>
    <path id="svg_36" d="m39.532,39.961l7.251,9.396l-8.111,8.759c-8.47601,-0.10799 -15.882,-4.686 -19.965,-11.487l4.586,-6.668h16.23901l0,0z" fill="#859894"/>
    <path id="svg_37" d="m18.512,24.573l-0.899,-0.268c2.76701,-5.813 7.84801,-10.333 14.04601,-12.36l0.138,3.634l-13.285,8.994z" fill="#B2C0BB"/>
    <path id="svg_38" d="m2.422,32.394l2.773,11.748l-0.771,3.366c-2.805,-4.704 -4.424,-10.205 -4.424,-16.076l2.422,0.962z" fill="#B2C0BB"/>
    <path id="svg_39" d="m18.512,24.573l4.78,15.388l-4.586,6.668c-2.146,-3.557 -3.376,-7.72 -3.376,-12.169c0,-3.633 0.823,-7.069 2.282,-10.154l0.9,0.267z" fill="#B2C0BB"/>
    <path id="svg_40" d="m37.79399,59.072l-12.321,-0.146l-8.848,-9.275l2.081,-3.021c4.083,6.802 11.489,11.37901 19.965,11.487l-0.87701,0.955z" fill="#859894"/>
    <path id="svg_41" d="m21.534,1.587l-1.428,2.677l-9.715,6.527h-2.658c3.652,-4.2 8.408,-7.413 13.801,-9.204z" fill="#B2C0BB"/>
    <path id="svg_42" d="m18.707,46.629l-2.081,3.021l-11.43,-5.508l-2.773,-11.748l5.298,-10.874l9.89301,2.785c-1.45901,3.085 -2.28201,6.521 -2.28201,10.154c-0.001,4.45 1.229,8.613 3.375,12.17z" fill="#FFFFFF"/>
    <path id="svg_43" d="m53.88,16.063l1.017,5.533l-9.829,2.977l-13.271,-8.994l-0.138,-3.634c2.312,-0.746 4.778,-1.153 7.344,-1.153c5.631,0 10.814,1.969 14.877,5.271z" fill="#B2C0BB"/>
    <path id="svg_44" d="m31.43299,5.571l0.22601,6.374c-6.198,2.027 -11.279,6.547 -14.04601,12.36l-9.893,-2.785l2.671,-10.729l9.715,-6.527l11.327,1.307z" fill="#FFFFFF"/>
    <path id="svg_45" d="m52.871,10.575l1.01,5.488c-4.063,-3.30199 -9.246,-5.271 -14.878,-5.271c-2.565,0 -5.03201,0.408 -7.344,1.153l-0.22601,-6.374l11.729,-1.307l9.709,6.311z" fill="#FFFFFF"/>
    <path id="svg_46" d="m55.133,10.792l-2.263,-0.217l-9.709,-6.311l-0.644,-2.25c4.909,1.842 9.23499,4.889 12.616,8.778z" fill="#B2C0BB"/>
    <path id="svg_47" d="m39.002,58.122c6.964,0 13.23,-3.009 17.556,-7.802c-3.78699,5.029 -9.056,8.886 -15.143,10.913l-3.621,-2.161l0.87701,-0.956c0.112,0.006 0.21999,0.006 0.33099,0.006z" fill="#859894"/>
    <path id="svg_48" d="m57.651,44.142l0.988,3.035c-0.631,1.083 -1.323,2.13499 -2.081,3.143c-4.325,4.793 -10.592,7.802 -17.556,7.802c-0.111,0 -0.21999,0 -0.33099,-0.006l8.111,-8.759l10.869,-5.215z" fill="#47170E"/>
    <path id="svg_49" d="m62.493,31.617l-1.502,0.777l-6.094,-10.798l-1.017,-5.533c4.666,3.78001 7.864,9.288 8.613,15.554z" fill="#47170E"/>
    <path id="svg_50" d="m62.866,31.432l-0.373,0.185c-0.749,-6.266 -3.946,-11.77299 -8.612,-15.554l-1.01,-5.488l2.263,0.217c4.812,5.526 7.732,12.736 7.732,20.64" fill="#723D1A"/>
    <polygon id="svg_51" points="45.067996978759766,24.572998046875 39.53200149536133,39.96099853515625 23.29299545288086,39.96099853515625 18.51199722290039,24.572998046875 31.796001434326172,15.579002380371094 " fill="#47170E"/>
    <path id="svg_52" d="m42.518,2.014l0.644,2.25l-11.729,1.307l-11.327,-1.307l1.428,-2.677c3.11,-1.033 6.441,-1.587 9.89899,-1.587c3.90701,0 7.64001,0.707 11.08501,2.014z" fill="#723D1A"/>
    <path id="svg_53" d="m10.391,10.792l-2.671,10.728l-5.298,10.874l-2.422,-0.962c0,-7.904 2.923,-15.114 7.732,-20.641h2.659l0,0.001z" fill="#723D1A"/>
    <path id="svg_54" d="m16.626,49.65l8.848,9.275l-3.35,2.473c-0.074,0 -0.144,-0.013 -0.221,-0.013c0,0 0,0 -0.006,0c-7.385,-2.346 -13.578,-7.35001 -17.473,-13.877l0.771,-3.366l11.431,5.508z" fill="#47170E"/>
    <path id="svg_55" d="m37.79399,59.072l-12.321,-0.146l-3.404,2.518l-0.02,0.121c2.295,0.701 4.647,1.153 7.019,1.313l-0.006,0.013l0.013,-0.013c4.188,0.299 8.411,-0.269 12.417,-1.645l-3.69801,-2.161z" fill="#859894"/>
</g>
    </g>
    
</svg>
